<svg width="20" height="20" viewBox="0 0 20 20" fill="none" xmlns="http://www.w3.org/2000/svg">
<path d="M19.1308 7.41939C19.0731 7.24958 18.967 7.10037 18.8255 6.99018C18.684 6.87999 18.5133 6.81365 18.3346 6.79934L13.1054 6.38383L10.8426 1.37482C10.7706 1.21349 10.6533 1.07646 10.5051 0.980278C10.3569 0.884093 10.184 0.832861 10.0073 0.832764C9.83063 0.832667 9.65768 0.883709 9.50935 0.979732C9.36103 1.07575 9.24366 1.21265 9.17142 1.3739L6.9086 6.38383L1.67945 6.79934C1.50376 6.81326 1.3358 6.8775 1.19566 6.98438C1.05552 7.09125 0.949144 7.23624 0.889249 7.40199C0.829354 7.56774 0.818479 7.74724 0.857927 7.91901C0.897375 8.09078 0.985474 8.24755 1.11168 8.37056L4.97599 12.1376L3.60931 18.0556C3.56782 18.2348 3.58112 18.4222 3.64749 18.5937C3.71386 18.7652 3.83024 18.9128 3.98153 19.0173C4.13282 19.1218 4.31202 19.1785 4.4959 19.1799C4.67977 19.1813 4.85982 19.1274 5.01268 19.0252L10.007 15.6956L15.0014 19.0252C15.1576 19.1289 15.3419 19.1823 15.5294 19.1782C15.7168 19.1741 15.8986 19.1126 16.0501 19.0022C16.2017 18.8917 16.3157 18.7374 16.377 18.5602C16.4383 18.3829 16.4438 18.1912 16.3928 18.0107L14.7152 12.1404L18.8758 8.39625C19.1482 8.15043 19.2482 7.76702 19.1308 7.41939Z" fill="#F3CD03"/>
</svg>
